<?xml version="1.0" encoding="utf-8"?>
<!-- Generator: Adobe Illustrator 22.1.0, SVG Export Plug-In . SVG Version: 6.00 Build 0)  -->
<svg version="1.1" id="Isolation_Mode" xmlns="http://www.w3.org/2000/svg" xmlns:xlink="http://www.w3.org/1999/xlink" x="0px"
	 y="0px" viewBox="0 0 426.4 426.4" style="enable-background:new 0 0 426.4 426.4;" xml:space="preserve">
<g>
	<path d="M366,336.3l-22.4-22.4l-10.3-10.3l-2.9-2.9l2.2-3.4l7.9-12.2C359.8,255.3,370,220.7,370,185c0-49.4-19.2-95.9-54.2-130.8
		C280.9,19.2,234.4,0,185,0C135.6,0,89.1,19.2,54.2,54.2C19.2,89.1,0,135.6,0,185c0,49.4,19.2,95.9,54.2,130.8
		C89.1,350.8,135.6,370,185,370c35.6,0,70.1-10.1,99.8-29.2L297,333l3.4-2.2l2.8,2.8l10.3,10.3l72.6,72.6l0.3-0.3l3.5,3.5l6.7,6.7
		l29.8-29.8L366,336.3z M291.8,291.8C263.3,320.3,225.4,336,185,336c-40.3,0-78.3-15.7-106.8-44.2C49.7,263.3,34,225.4,34,185
		c0-40.3,15.7-78.3,44.2-106.8C106.7,49.7,144.6,34,185,34c40.3,0,78.3,15.7,106.8,44.2C320.3,106.7,336,144.6,336,185
		C336,225.3,320.3,263.3,291.8,291.8z"/>
</g>
</svg>
