<?xml version="1.0" encoding="utf-8"?>
<!-- Generator: Adobe Illustrator 22.1.0, SVG Export Plug-In . SVG Version: 6.00 Build 0)  -->
<svg version="1.1" id="Layer_1" xmlns="http://www.w3.org/2000/svg" xmlns:xlink="http://www.w3.org/1999/xlink" x="0px" y="0px"
	 viewBox="0 0 68 88.4" style="enable-background:new 0 0 68 88.4;" xml:space="preserve">
<style type="text/css">
	.pin-layer{fill:#FFFFFF;}
</style>
<path class="pin-layer" d="M56.7,41.3c8-12.5,4.3-29.2-8.3-37.1C44.2,1.5,39.2,0,34.1,0c-9.3,0-17.8,4.7-22.7,12.5
	c-5.6,8.8-5.6,20.1,0,28.9l0,0l21.8,34.6c0.2,0.3,0.5,0.5,0.9,0.5s0.7-0.2,0.9-0.5L56.7,41.3z M34,73.4L33.8,73L13.1,40.2
	c-6-9.5-4.9-21.9,2.8-30.2C25.1,0,40.8-0.6,50.8,8.6c0.5,0.5,1,0.9,1.4,1.4c7.6,8.3,8.7,20.7,2.8,30.2L34,73.4z"/>
<path class="pin-layer" d="M20.1,27c0,7.7,6.3,13.9,14,13.9c7.7,0,14-6.3,14-14C48,19.3,41.7,13,34,13c-3.8,0-7.3,1.5-9.9,4.1
	C21.5,19.8,20.1,23.3,20.1,27z M34.1,15.1L34.1,15.1c3.2,0,6.1,1.3,8.4,3.5s3.4,5.2,3.4,8.4c0,6.5-5.4,11.8-11.9,11.8
	c-6.5,0-11.9-5.4-11.9-11.9c0-3.2,1.3-6.1,3.5-8.4C27.9,16.4,30.9,15.1,34.1,15.1z"/>
<path class="pin-layer" d="M46.6,67l-1.2,2C57.1,70.3,66,73.9,66,77.3c0,4.3-13.1,9-32,9s-32-4.7-32-9c0-3.5,8.9-7,20.7-8.4l-1.2-2
	C8.2,68.6,0,72.6,0,77.3c0,4.2,5.8,6.8,10.7,8.2c6.2,1.8,14.7,2.9,23.3,2.9s17.1-1.1,23.3-2.9c4.9-1.4,10.7-4,10.7-8.2
	C68.1,72.6,59.9,68.6,46.6,67z"/>
</svg>
