<?xml version="1.0" encoding="utf-8"?>
<!-- Generator: Adobe Illustrator 22.1.0, SVG Export Plug-In . SVG Version: 6.00 Build 0)  -->
<svg version="1.1" id="Isolation_Mode" xmlns="http://www.w3.org/2000/svg" xmlns:xlink="http://www.w3.org/1999/xlink" x="0px"
	 y="0px" viewBox="0 0 89 37.7" style="enable-background:new 0 0 89 37.7;" xml:space="preserve">
<style type="text/css">
	.st0{fill:#F7F7F7;}
</style>
<path class="st0" d="M0,37.7c0.7-1.2,2-1.1,2.9-1.4c0.9-0.3,1.7-0.9,2.3-1.6c2.9-3,4.5-7.1,6.5-10.7C17.2,14.5,21.9,6.1,32.9,2
	c2.2-0.8,5.4-1.5,7.8-1.8L43.3,0c1.4-0.2,4.9,0.1,6.3,0.4c7.5,1,13.6,4.4,18.7,10c3.8,4.2,6.4,9,9.1,13.9c1.9,3.4,3.8,7.9,6.6,10.6
	c0.6,0.6,1.3,1.1,2.1,1.4c0.8,0.3,2,0.2,2.8,1.2"/>
</svg>
